<svg xmlns="http://www.w3.org/2000/svg" xmlns:xlink="http://www.w3.org/1999/xlink" viewBox="0 0 380 228">
  <defs>
    <linearGradient id="2020-b" x1="77.177%" x2="38.441%" y1="34.705%" y2="66.918%">
      <stop offset="0%" stop-color="#FFF"/>
      <stop offset="100%" stop-color="#FFF"/>
    </linearGradient>
    <rect id="2020-a" width="380" height="227.769" x="0" y="0" rx="3.46"/>
    <circle id="2020-e" cx="342.519" cy="41.517" r="4.036"/>
    <filter id="2020-d" width="149.5%" height="149.5%" x="-24.8%" y="-12.4%" filterUnits="objectBoundingBox">
      <feOffset dy="1" in="SourceAlpha" result="shadowOffsetOuter1"/>
      <feGaussianBlur in="shadowOffsetOuter1" result="shadowBlurOuter1" stdDeviation=".5"/>
      <feColorMatrix in="shadowBlurOuter1" values="0 0 0 0 0   0 0 0 0 0   0 0 0 0 0  0 0 0 0.171929633 0"/>
    </filter>
    <circle id="2020-g" cx="329.833" cy="41.517" r="4.036"/>
    <filter id="2020-f" width="149.5%" height="149.5%" x="-24.8%" y="-12.4%" filterUnits="objectBoundingBox">
      <feOffset dy="1" in="SourceAlpha" result="shadowOffsetOuter1"/>
      <feGaussianBlur in="shadowOffsetOuter1" result="shadowBlurOuter1" stdDeviation=".5"/>
      <feColorMatrix in="shadowBlurOuter1" values="0 0 0 0 0   0 0 0 0 0   0 0 0 0 0  0 0 0 0.171929633 0"/>
    </filter>
    <rect id="2020-h" width="79.575" height="44.977" x=".208" y="0" rx=".622"/>
    <filter id="2020-i" width="105%" height="108.9%" x="-3.8%" y="-2.2%" filterUnits="objectBoundingBox">
      <feOffset dx="-1" dy="1" in="SourceAlpha" result="shadowOffsetOuter1"/>
      <feGaussianBlur in="shadowOffsetOuter1" result="shadowBlurOuter1" stdDeviation=".5"/>
      <feComposite in="shadowBlurOuter1" in2="SourceAlpha" operator="out" result="shadowBlurOuter1"/>
      <feColorMatrix in="shadowBlurOuter1" values="0 0 0 0 0   0 0 0 0 0   0 0 0 0 0  0 0 0 0.094569493 0"/>
    </filter>
    <path id="2020-l" d="M25.0811533,33.0749924 C25.4244582,33.0749924 25.7027618,33.5913256 25.7027618,34.2282549 L25.7027618,36.53478 C25.7027618,37.1717093 25.4244582,37.6880425 25.0811533,37.6880425 L9.54094082,37.6880425 C9.19763593,37.6880425 8.91933232,37.1717093 8.91933232,36.53478 L8.91933232,34.2282549 C8.91933232,33.5913256 9.19763593,33.0749924 9.54094082,33.0749924 L25.0811533,33.0749924 Z M72.3233991,15.5805766 C72.666704,15.5805766 72.9450076,15.8588802 72.9450076,16.2021851 L72.9450076,27.7019423 C72.9450076,28.0452472 72.666704,28.3235508 72.3233991,28.3235508 L9.54094082,28.3235508 C9.19763593,28.3235508 8.91933232,28.0452472 8.91933232,27.7019423 L8.91933232,16.2021851 C8.91933232,15.8588802 9.19763593,15.5805766 9.54094082,15.5805766 L72.3233991,15.5805766 Z M40.6213657,6.21608498 C40.9646706,6.21608498 41.2429742,6.73241819 41.2429742,7.3693475 L41.2429742,9.67587253 C41.2429742,10.3128018 40.9646706,10.8291351 40.6213657,10.8291351 L9.54094082,10.8291351 C9.19763593,10.8291351 8.91933232,10.3128018 8.91933232,9.67587253 L8.91933232,7.3693475 C8.91933232,6.73241819 9.19763593,6.21608498 9.54094082,6.21608498 L40.6213657,6.21608498 Z"/>
    <filter id="2020-k" width="106.2%" height="112.7%" x="-4.7%" y="-3.2%" filterUnits="objectBoundingBox">
      <feOffset dx="-1" dy="1" in="SourceAlpha" result="shadowOffsetOuter1"/>
      <feGaussianBlur in="shadowOffsetOuter1" result="shadowBlurOuter1" stdDeviation=".5"/>
      <feColorMatrix in="shadowBlurOuter1" values="0 0 0 0 0   0 0 0 0 0   0 0 0 0 0  0 0 0 0.103638549 0"/>
    </filter>
    <rect id="2020-m" width="79.575" height="44.977" x=".208" y="0" rx=".622"/>
    <filter id="2020-n" width="105%" height="108.9%" x="-3.8%" y="-2.2%" filterUnits="objectBoundingBox">
      <feOffset dx="-1" dy="1" in="SourceAlpha" result="shadowOffsetOuter1"/>
      <feGaussianBlur in="shadowOffsetOuter1" result="shadowBlurOuter1" stdDeviation=".5"/>
      <feComposite in="shadowBlurOuter1" in2="SourceAlpha" operator="out" result="shadowBlurOuter1"/>
      <feColorMatrix in="shadowBlurOuter1" values="0 0 0 0 0   0 0 0 0 0   0 0 0 0 0  0 0 0 0.094569493 0"/>
    </filter>
    <path id="2020-q" d="M25.0811533,33.0749924 C25.4244582,33.0749924 25.7027618,33.5913256 25.7027618,34.2282549 L25.7027618,36.53478 C25.7027618,37.1717093 25.4244582,37.6880425 25.0811533,37.6880425 L9.54094082,37.6880425 C9.19763593,37.6880425 8.91933232,37.1717093 8.91933232,36.53478 L8.91933232,34.2282549 C8.91933232,33.5913256 9.19763593,33.0749924 9.54094082,33.0749924 L25.0811533,33.0749924 Z M72.3233991,15.5805766 C72.666704,15.5805766 72.9450076,15.8588802 72.9450076,16.2021851 L72.9450076,27.7019423 C72.9450076,28.0452472 72.666704,28.3235508 72.3233991,28.3235508 L9.54094082,28.3235508 C9.19763593,28.3235508 8.91933232,28.0452472 8.91933232,27.7019423 L8.91933232,16.2021851 C8.91933232,15.8588802 9.19763593,15.5805766 9.54094082,15.5805766 L72.3233991,15.5805766 Z M40.6213657,6.21608498 C40.9646706,6.21608498 41.2429742,6.73241819 41.2429742,7.3693475 L41.2429742,9.67587253 C41.2429742,10.3128018 40.9646706,10.8291351 40.6213657,10.8291351 L9.54094082,10.8291351 C9.19763593,10.8291351 8.91933232,10.3128018 8.91933232,9.67587253 L8.91933232,7.3693475 C8.91933232,6.73241819 9.19763593,6.21608498 9.54094082,6.21608498 L40.6213657,6.21608498 Z"/>
    <filter id="2020-p" width="106.2%" height="112.7%" x="-4.7%" y="-3.2%" filterUnits="objectBoundingBox">
      <feOffset dx="-1" dy="1" in="SourceAlpha" result="shadowOffsetOuter1"/>
      <feGaussianBlur in="shadowOffsetOuter1" result="shadowBlurOuter1" stdDeviation=".5"/>
      <feColorMatrix in="shadowBlurOuter1" values="0 0 0 0 0   0 0 0 0 0   0 0 0 0 0  0 0 0 0.103638549 0"/>
    </filter>
    <linearGradient id="2020-s" x1="50%" x2="50%" y1="0%" y2="100%">
      <stop offset="0%" stop-color="#5FA0F8"/>
      <stop offset="100%" stop-color="#4991F2"/>
    </linearGradient>
    <path id="2020-r" d="M0.862409539,-3.48423776e-17 L13.9377928,-9.1926165e-16 C14.2376714,5.34117492e-16 14.3464146,0.031223587 14.4560457,0.089854956 C14.5656769,0.148486325 14.651716,0.234525476 14.7103474,0.344156605 C14.7689787,0.453787733 14.8002023,0.562530954 14.8002023,0.862409539 L14.8002023,13.9377928 C14.8002023,14.2376714 14.7689787,14.3464146 14.7103474,14.4560457 C14.651716,14.5656769 14.5656769,14.651716 14.4560457,14.7103474 C14.3464146,14.7689787 14.2376714,14.8002023 13.9377928,14.8002023 L0.862409539,14.8002023 C0.562530954,14.8002023 0.453787733,14.7689787 0.344156605,14.7103474 C0.234525476,14.651716 0.148486325,14.5656769 0.089854956,14.4560457 C0.031223587,14.3464146 6.00789246e-16,14.2376714 -1.03400941e-15,13.9377928 L7.99053854e-17,0.862409539 C-4.642733e-17,0.562530954 0.031223587,0.453787733 0.089854956,0.344156605 C0.148486325,0.234525476 0.234525476,0.148486325 0.344156605,0.089854956 C0.453787733,0.031223587 0.562530954,2.02444248e-17 0.862409539,-3.48423776e-17 Z"/>
    <linearGradient id="2020-u" x1="50%" x2="50%" y1="0%" y2="98.146%">
      <stop offset="0%" stop-color="#FB7951"/>
      <stop offset="100%" stop-color="#F46D43"/>
    </linearGradient>
    <path id="2020-t" d="M0.862409539,-3.48423776e-17 L13.9377928,-9.1926165e-16 C14.2376714,5.34117492e-16 14.3464146,0.031223587 14.4560457,0.089854956 C14.5656769,0.148486325 14.651716,0.234525476 14.7103474,0.344156605 C14.7689787,0.453787733 14.8002023,0.562530954 14.8002023,0.862409539 L14.8002023,13.9377928 C14.8002023,14.2376714 14.7689787,14.3464146 14.7103474,14.4560457 C14.651716,14.5656769 14.5656769,14.651716 14.4560457,14.7103474 C14.3464146,14.7689787 14.2376714,14.8002023 13.9377928,14.8002023 L0.862409539,14.8002023 C0.562530954,14.8002023 0.453787733,14.7689787 0.344156605,14.7103474 C0.234525476,14.651716 0.148486325,14.5656769 0.089854956,14.4560457 C0.031223587,14.3464146 6.00789246e-16,14.2376714 -1.03400941e-15,13.9377928 L7.99053854e-17,0.862409539 C-4.642733e-17,0.562530954 0.031223587,0.453787733 0.089854956,0.344156605 C0.148486325,0.234525476 0.234525476,0.148486325 0.344156605,0.089854956 C0.453787733,0.031223587 0.562530954,2.02444248e-17 0.862409539,-3.48423776e-17 Z"/>
    <linearGradient id="2020-w" x1="50%" x2="50%" y1="0%" y2="100%">
      <stop offset="0%" stop-color="#3CCD93"/>
      <stop offset="100%" stop-color="#1FBB7D"/>
    </linearGradient>
    <path id="2020-v" d="M0.862409539,-3.48423776e-17 L13.9377928,-9.1926165e-16 C14.2376714,5.34117492e-16 14.3464146,0.031223587 14.4560457,0.089854956 C14.5656769,0.148486325 14.651716,0.234525476 14.7103474,0.344156605 C14.7689787,0.453787733 14.8002023,0.562530954 14.8002023,0.862409539 L14.8002023,13.9377928 C14.8002023,14.2376714 14.7689787,14.3464146 14.7103474,14.4560457 C14.651716,14.5656769 14.5656769,14.651716 14.4560457,14.7103474 C14.3464146,14.7689787 14.2376714,14.8002023 13.9377928,14.8002023 L0.862409539,14.8002023 C0.562530954,14.8002023 0.453787733,14.7689787 0.344156605,14.7103474 C0.234525476,14.651716 0.148486325,14.5656769 0.089854956,14.4560457 C0.031223587,14.3464146 6.00789246e-16,14.2376714 -1.03400941e-15,13.9377928 L7.99053854e-17,0.862409539 C-4.642733e-17,0.562530954 0.031223587,0.453787733 0.089854956,0.344156605 C0.148486325,0.234525476 0.234525476,0.148486325 0.344156605,0.089854956 C0.453787733,0.031223587 0.562530954,2.02444248e-17 0.862409539,-3.48423776e-17 Z"/>
    <rect id="2020-y" width="103" height="30" x=".147" y=".381"/>
    <filter id="2020-x" width="103.9%" height="113.3%" x="-2.9%" y="-3.3%" filterUnits="objectBoundingBox">
      <feOffset dx="-1" dy="1" in="SourceAlpha" result="shadowOffsetOuter1"/>
      <feGaussianBlur in="shadowOffsetOuter1" result="shadowBlurOuter1" stdDeviation=".5"/>
      <feComposite in="shadowBlurOuter1" in2="SourceAlpha" operator="out" result="shadowBlurOuter1"/>
      <feColorMatrix in="shadowBlurOuter1" values="0 0 0 0 0   0 0 0 0 0   0 0 0 0 0  0 0 0 0.0599049388 0"/>
    </filter>
    <rect id="2020-A" width="103" height="30" x="108.147" y=".381"/>
    <filter id="2020-z" width="103.9%" height="113.3%" x="-2.9%" y="-3.3%" filterUnits="objectBoundingBox">
      <feOffset dx="-1" dy="1" in="SourceAlpha" result="shadowOffsetOuter1"/>
      <feGaussianBlur in="shadowOffsetOuter1" result="shadowBlurOuter1" stdDeviation=".5"/>
      <feComposite in="shadowBlurOuter1" in2="SourceAlpha" operator="out" result="shadowBlurOuter1"/>
      <feColorMatrix in="shadowBlurOuter1" values="0 0 0 0 0   0 0 0 0 0   0 0 0 0 0  0 0 0 0.0599049388 0"/>
    </filter>
    <path id="2020-B" d="M0.739208176,-1.99896296e-16 L11.9466795,2.98648951e-17 C12.2037183,-1.73523641e-17 12.2969268,0.0267630745 12.3908963,0.0770185337 C12.4848659,0.127273993 12.5586137,0.201021837 12.6088692,0.294991375 C12.6591246,0.388960914 12.6858877,0.482169389 12.6858877,0.739208176 L12.6858877,11.9466795 C12.6858877,12.2037183 12.6591246,12.2969268 12.6088692,12.3908963 C12.5586137,12.4848659 12.4848659,12.5586137 12.3908963,12.6088692 C12.2969268,12.6591246 12.2037183,12.6858877 11.9466795,12.6858877 L0.739208176,12.6858877 C0.482169389,12.6858877 0.388960914,12.6591246 0.294991375,12.6088692 C0.201021837,12.5586137 0.127273993,12.4848659 0.0770185337,12.3908963 C0.0267630745,12.2969268 1.10361383e-16,12.2037183 -1.89941331e-16,11.9466795 L1.990993e-17,0.739208176 C-1.15682427e-17,0.482169389 0.0267630745,0.388960914 0.0770185337,0.294991375 C0.127273993,0.201021837 0.201021837,0.127273993 0.294991375,0.0770185337 C0.388960914,0.0267630745 0.482169389,1.16145505e-16 0.739208176,-1.99896296e-16 Z"/>
    <path id="2020-C" d="M0.739208176,-1.99896296e-16 L11.9466795,2.98648951e-17 C12.2037183,-1.73523641e-17 12.2969268,0.0267630745 12.3908963,0.0770185337 C12.4848659,0.127273993 12.5586137,0.201021837 12.6088692,0.294991375 C12.6591246,0.388960914 12.6858877,0.482169389 12.6858877,0.739208176 L12.6858877,11.9466795 C12.6858877,12.2037183 12.6591246,12.2969268 12.6088692,12.3908963 C12.5586137,12.4848659 12.4848659,12.5586137 12.3908963,12.6088692 C12.2969268,12.6591246 12.2037183,12.6858877 11.9466795,12.6858877 L0.739208176,12.6858877 C0.482169389,12.6858877 0.388960914,12.6591246 0.294991375,12.6088692 C0.201021837,12.5586137 0.127273993,12.4848659 0.0770185337,12.3908963 C0.0267630745,12.2969268 1.10361383e-16,12.2037183 -1.89941331e-16,11.9466795 L1.990993e-17,0.739208176 C-1.15682427e-17,0.482169389 0.0267630745,0.388960914 0.0770185337,0.294991375 C0.127273993,0.201021837 0.201021837,0.127273993 0.294991375,0.0770185337 C0.388960914,0.0267630745 0.482169389,1.16145505e-16 0.739208176,-1.99896296e-16 Z"/>
    <path id="2020-E" d="M12.4287414,8.48548938 C12.6213488,8.48548938 12.777488,8.64162854 12.777488,8.83423596 L12.7766652,9.91348938 L15.5816652,9.91348938 L15.5819581,8.83423596 C15.5819581,8.64162854 15.7380973,8.48548938 15.9307047,8.48548938 L17.3365642,8.48548938 C17.5291716,8.48548938 17.6853108,8.64162854 17.6853108,8.83423596 L17.6846652,9.91348938 L19.9317864,9.91385306 C20.2399583,9.91385306 20.4897809,10.1636757 20.4897809,10.4718476 L20.4897809,20.0685861 C20.4897809,20.376758 20.2399583,20.6265807 19.9317864,20.6265807 L8.42765975,20.6265807 C8.11948788,20.6265807 7.86966521,20.376758 7.86966521,20.0685861 L7.86966521,10.4718476 C7.86966521,10.1636757 8.11948788,9.91385306 8.42765975,9.91385306 L10.6736652,9.91348938 L10.6741354,8.83423596 C10.6741354,8.64162854 10.8302745,8.48548938 11.022882,8.48548938 L12.4287414,8.48548938 Z"/>
    <filter id="2020-D" width="131.7%" height="132.9%" x="-23.8%" y="-8.2%" filterUnits="objectBoundingBox">
      <feOffset dx="-1" dy="1" in="SourceAlpha" result="shadowOffsetOuter1"/>
      <feGaussianBlur in="shadowOffsetOuter1" result="shadowBlurOuter1" stdDeviation=".5"/>
      <feColorMatrix in="shadowBlurOuter1" values="0 0 0 0 0   0 0 0 0 0   0 0 0 0 0  0 0 0 0.12 0"/>
    </filter>
    <path id="2020-G" d="M16.8446278,12.5344772 C16.9820731,12.3995461 17.2028778,12.4015843 17.3378089,12.5390296 L17.3378089,12.5390296 L17.8406269,13.0512169 C17.9737999,13.1868714 17.9737999,13.404191 17.8406269,13.5398456 L17.8406269,13.5398456 L13.8674541,17.5870526 L13.8674541,17.5870526 C13.7254564,17.7265361 13.5046516,17.7244979 13.3697206,17.5870526 L13.3697206,17.5870526 L12.8669026,17.0748653 C12.8560313,17.0637915 12.8460475,17.0521734 12.8369511,17.0401 L11.3819983,15.5546645 C11.2488252,15.4190099 11.2488252,15.2016903 11.3819983,15.0660358 L11.3819983,15.0660358 L11.8848163,14.5538485 C11.8863197,14.5523171 11.8878372,14.5507995 11.8893687,14.5492961 C12.026814,14.414365 12.2476187,14.4164032 12.3825498,14.5538485 L12.3825498,14.5538485 L13.6211185,15.8155973 L16.8400753,12.5390296 C16.840827,12.5382639 16.8415823,12.5375016 16.842341,12.5367429 Z"/>
    <filter id="2020-F" width="205.1%" height="233.1%" x="-52.6%" y="-47.6%" filterUnits="objectBoundingBox">
      <feOffset dy="1" in="SourceAlpha" result="shadowOffsetOuter1"/>
      <feGaussianBlur in="shadowOffsetOuter1" result="shadowBlurOuter1" stdDeviation="1"/>
      <feColorMatrix in="shadowBlurOuter1" values="0 0 0 0 0   0 0 0 0 0   0 0 0 0 0  0 0 0 0.253059441 0"/>
    </filter>
    <path id="2020-I" d="M1.03541447,0.19221042 L8.52397632,0.19221042 C8.69663056,0.19221042 8.86221334,0.260797051 8.98429833,0.382882039 L11.6302692,3.02885291 C11.7523542,3.1509379 11.8209408,3.31652068 11.8209408,3.48917492 L11.8209408,12.3232097 C11.8209408,12.6827436 11.529481,12.9742033 11.1699472,12.9742033 L1.03541447,12.9742033 C0.675880614,12.9742033 0.38442084,12.6827436 0.38442084,12.3232097 L0.38442084,0.843204047 C0.38442084,0.483670194 0.675880614,0.19221042 1.03541447,0.19221042 Z"/>
    <filter id="2020-H" width="135%" height="131.3%" x="-26.2%" y="-7.8%" filterUnits="objectBoundingBox">
      <feOffset dx="-1" dy="1" in="SourceAlpha" result="shadowOffsetOuter1"/>
      <feGaussianBlur in="shadowOffsetOuter1" result="shadowBlurOuter1" stdDeviation=".5"/>
      <feColorMatrix in="shadowBlurOuter1" values="0 0 0 0 0   0 0 0 0 0   0 0 0 0 0  0 0 0 0.12 0"/>
    </filter>
    <path id="2020-K" d="M6.70491452,7.59231158 C6.92962317,7.59231158 7.11178553,7.77447394 7.11178553,7.9991826 L7.11178553,8.53091351 C7.11178553,8.75562216 6.92962317,8.93778452 6.70491452,8.93778452 L3.48223773,8.93778452 C3.25752908,8.93778452 3.07536672,8.75562216 3.07536672,8.53091351 L3.07536672,7.9991826 C3.07536672,7.77447394 3.25752908,7.59231158 3.48223773,7.59231158 L6.70491452,7.59231158 Z M8.72312393,4.22862924 C8.94783258,4.22862924 9.12999494,4.4107916 9.12999494,4.63550025 L9.12999494,5.16723116 C9.12999494,5.39193982 8.94783258,5.57410218 8.72312393,5.57410218 L3.48223773,5.57410218 C3.25752908,5.57410218 3.07536672,5.39193982 3.07536672,5.16723116 L3.07536672,4.63550025 C3.07536672,4.4107916 3.25752908,4.22862924 3.48223773,4.22862924 L8.72312393,4.22862924 Z"/>
    <filter id="2020-J" width="215.6%" height="248.6%" x="-57.8%" y="-53.1%" filterUnits="objectBoundingBox">
      <feOffset dy="1" in="SourceAlpha" result="shadowOffsetOuter1"/>
      <feGaussianBlur in="shadowOffsetOuter1" result="shadowBlurOuter1" stdDeviation="1"/>
      <feColorMatrix in="shadowBlurOuter1" values="0 0 0 0 0   0 0 0 0 0   0 0 0 0 0  0 0 0 0.253059441 0"/>
    </filter>
    <path id="2020-M" d="M7.86966521,7.8902214 L7.86966521,18.9153236 C7.86966521,19.2234955 8.11948788,19.4733182 8.42765975,19.4733182 L20.6329039,19.4733182 C20.9410758,19.4733182 21.1908985,19.2234955 21.1908985,18.9153236 L21.1908985,9.31858508 C21.1908985,9.01041321 20.9410758,8.76059054 20.6329039,8.76059054 L14.1550161,8.76059054 C14.0563982,8.76059054 13.9595419,8.73445428 13.8743113,8.68484354 L11.6806647,7.40797386 C11.5954341,7.35836312 11.4985778,7.33222686 11.3999599,7.33222686 L8.42765975,7.33222686 C8.11948788,7.33222686 7.86966521,7.58204952 7.86966521,7.8902214 Z"/>
    <filter id="2020-L" width="130%" height="132.9%" x="-22.5%" y="-8.2%" filterUnits="objectBoundingBox">
      <feOffset dx="-1" dy="1" in="SourceAlpha" result="shadowOffsetOuter1"/>
      <feGaussianBlur in="shadowOffsetOuter1" result="shadowBlurOuter1" stdDeviation=".5"/>
      <feColorMatrix in="shadowBlurOuter1" values="0 0 0 0 0   0 0 0 0 0   0 0 0 0 0  0 0 0 0.12 0"/>
    </filter>
    <path id="2020-O" d="M11.7239995,11.6173179 L17.3365642,11.6173179 C17.5291716,11.6173179 17.6853108,11.7734571 17.6853108,11.9660645 L17.6853108,12.696935 C17.6853108,12.8895424 17.5291716,13.0456816 17.3365642,13.0456816 L11.7239995,13.0456816 C11.5313921,13.0456816 11.3752529,12.8895424 11.3752529,12.696935 L11.3752529,11.9660645 C11.3752529,11.7734571 11.5313921,11.6173179 11.7239995,11.6173179 Z"/>
    <filter id="2020-N" width="210.9%" height="590.1%" x="-55.5%" y="-175%" filterUnits="objectBoundingBox">
      <feOffset dy="1" in="SourceAlpha" result="shadowOffsetOuter1"/>
      <feGaussianBlur in="shadowOffsetOuter1" result="shadowBlurOuter1" stdDeviation="1"/>
      <feColorMatrix in="shadowBlurOuter1" values="0 0 0 0 0   0 0 0 0 0   0 0 0 0 0  0 0 0 0.253059441 0"/>
    </filter>
    <path id="2020-P" d="M7.22390427,0.275101163 L7.29639163,0.275101163 C11.14854,0.275101163 14.2713233,3.39788446 14.2713233,7.25003288 L14.2713233,7.58380627 C14.2713233,11.4359547 11.14854,14.558738 7.29639163,14.558738 L7.22390427,14.558738 C3.37175586,14.558738 0.248972559,11.4359547 0.248972559,7.58380627 L0.248972559,7.25003288 C0.248972559,3.39788446 3.37175586,0.275101163 7.22390427,0.275101163 Z"/>
    <filter id="2020-Q" width="128.5%" height="128%" x="-21.4%" y="-7%" filterUnits="objectBoundingBox">
      <feOffset dx="-1" dy="1" in="SourceAlpha" result="shadowOffsetOuter1"/>
      <feGaussianBlur in="shadowOffsetOuter1" result="shadowBlurOuter1" stdDeviation=".5"/>
      <feColorMatrix in="shadowBlurOuter1" values="0 0 0 0 0   0 0 0 0 0   0 0 0 0 0  0 0 0 0.12 0"/>
    </filter>
    <path id="2020-T" d="M7.61308294,3.84349234 C7.80569037,3.84349234 7.96182953,3.99963151 7.96182953,4.19223893 L7.96156026,6.70249234 L10.4169891,6.70273773 C10.6095965,6.70273773 10.7657356,6.8588769 10.7657356,7.05148432 L10.7657356,7.78498114 C10.7657356,7.97758856 10.6095965,8.13372773 10.4169891,8.13372773 L7.96156026,8.13349234 L7.96182953,10.6365642 C7.96182953,10.8291716 7.80569037,10.9853108 7.61308294,10.9853108 L6.90834104,10.9853108 C6.71573362,10.9853108 6.55959445,10.8291716 6.55959445,10.6365642 L6.55956026,8.13349234 L4.10330684,8.13372773 C3.91069942,8.13372773 3.75456026,7.97758856 3.75456026,7.78498114 L3.75456026,7.05148432 C3.75456026,6.8588769 3.91069942,6.70273773 4.10330684,6.70273773 L6.55956026,6.70249234 L6.55959445,4.19223893 C6.55959445,3.99963151 6.71573362,3.84349234 6.90834104,3.84349234 L7.61308294,3.84349234 Z"/>
    <filter id="2020-S" width="199.8%" height="198%" x="-49.9%" y="-35%" filterUnits="objectBoundingBox">
      <feOffset dy="1" in="SourceAlpha" result="shadowOffsetOuter1"/>
      <feGaussianBlur in="shadowOffsetOuter1" result="shadowBlurOuter1" stdDeviation="1"/>
      <feColorMatrix in="shadowBlurOuter1" values="0 0 0 0 0   0 0 0 0 0   0 0 0 0 0  0 0 0 0.253059441 0"/>
    </filter>
    <rect id="2020-V" width="211.047" height="14.416" x="62.853" y="34.021" rx="7.208"/>
    <filter id="2020-U" width="101.9%" height="127.7%" x="-1.4%" y="-6.9%" filterUnits="objectBoundingBox">
      <feOffset dx="-1" dy="1" in="SourceAlpha" result="shadowOffsetOuter1"/>
      <feGaussianBlur in="shadowOffsetOuter1" result="shadowBlurOuter1" stdDeviation=".5"/>
      <feColorMatrix in="shadowBlurOuter1" values="0 0 0 0 0   0 0 0 0 0   0 0 0 0 0  0 0 0 0.13395979 0"/>
    </filter>
    <circle id="2020-W" cx="6.92" cy="6.92" r="6.92"/>
    <filter id="2020-X" width="128.9%" height="128.9%" x="-14.5%" y="-7.2%" filterUnits="objectBoundingBox">
      <feOffset dy="1" in="SourceAlpha" result="shadowOffsetOuter1"/>
      <feGaussianBlur in="shadowOffsetOuter1" result="shadowBlurOuter1" stdDeviation=".5"/>
      <feColorMatrix in="shadowBlurOuter1" values="0 0 0 0 0   0 0 0 0 0   0 0 0 0 0  0 0 0 0.171929633 0"/>
    </filter>
    <linearGradient id="2020-Z" x1="0%" x2="100%" y1="0%" y2="100%">
      <stop offset="0%" stop-color="#6FCAFF"/>
      <stop offset="100%" stop-color="#4192FF"/>
    </linearGradient>
    <linearGradient id="2020-aa" x1="0%" x2="100%" y1="0%" y2="100%">
      <stop offset="0%" stop-color="#FFA763"/>
      <stop offset="100%" stop-color="#FF6E41"/>
    </linearGradient>
    <linearGradient id="2020-ab" x1=".359%" x2="99.093%" y1=".359%" y2="99.093%">
      <stop offset="0%" stop-color="#3AE191"/>
      <stop offset="100%" stop-color="#16B978"/>
    </linearGradient>
  </defs>
  <g fill="none" fill-rule="evenodd">
    <mask id="2020-c" fill="#fff">
      <use xlink:href="#2020-a"/>
    </mask>
    <use fill="url(#2020-b)" xlink:href="#2020-a"/>
    <g fill-rule="nonzero" mask="url(#2020-c)">
      <use fill="#000" filter="url(#2020-d)" xlink:href="#2020-e"/>
      <use fill="#ECEDEF" xlink:href="#2020-e"/>
    </g>
    <g fill-rule="nonzero" mask="url(#2020-c)">
      <use fill="#000" filter="url(#2020-f)" xlink:href="#2020-g"/>
      <use fill="#ECEDEF" xlink:href="#2020-g"/>
    </g>
    <g mask="url(#2020-c)">
      <g transform="translate(286.586 63.43)">
        <mask id="2020-j" fill="#fff">
          <use xlink:href="#2020-h"/>
        </mask>
        <use fill="#000" filter="url(#2020-i)" xlink:href="#2020-h"/>
        <rect width="79.075" height="44.477" x=".458" y=".25" fill="#FFF" stroke="#F4EFEA" stroke-linejoin="square" stroke-width=".5" rx=".622"/>
        <g fill-opacity="0" mask="url(#2020-j)">
          <rect width="7.459" height="7.459" rx="1.243" transform="translate(70.459 2.486)"/>
        </g>
        <use fill="#000" filter="url(#2020-k)" xlink:href="#2020-l"/>
        <use fill="#ECEDEF" xlink:href="#2020-l"/>
      </g>
    </g>
    <g mask="url(#2020-c)">
      <g transform="translate(286.586 119.94)">
        <mask id="2020-o" fill="#fff">
          <use xlink:href="#2020-m"/>
        </mask>
        <use fill="#000" filter="url(#2020-n)" xlink:href="#2020-m"/>
        <rect width="79.075" height="44.477" x=".458" y=".25" fill="#FFF" stroke="#F4EFEA" stroke-linejoin="square" stroke-width=".5" rx=".622"/>
        <g fill-opacity="0" mask="url(#2020-o)">
          <rect width="7.459" height="7.459" rx="1.243" transform="translate(70.459 2.486)"/>
        </g>
        <use fill="#000" filter="url(#2020-p)" xlink:href="#2020-q"/>
        <use fill="#ECEDEF" xlink:href="#2020-q"/>
      </g>
    </g>
    <rect width="380" height="20.759" fill="#E3E4E7" mask="url(#2020-c)"/>
    <g transform="translate(63.43 113.596)">
      <path fill="#ECEDEF" d="M77.1716827,11.5326252 C77.6175332,11.5326252 77.9789664,11.8940584 77.9789664,12.339909 L77.9789664,14.7617602 C77.9789664,15.2076108 77.6175332,15.569044 77.1716827,15.569044 L25.0257967,15.569044 C24.5799462,15.569044 24.2185129,15.2076108 24.2185129,14.7617602 L24.2185129,12.339909 C24.2185129,11.8940584 24.5799462,11.5326252 25.0257967,11.5326252 L77.1716827,11.5326252 Z M209.7304,2.30652504 C210.17625,2.30652504 210.537683,2.66795829 210.537683,3.1138088 L210.537683,5.53566009 C210.537683,5.9815106 210.17625,6.34294385 209.7304,6.34294385 L25.0257967,6.34294385 C24.5799462,6.34294385 24.2185129,5.9815106 24.2185129,5.53566009 L24.2185129,3.1138088 C24.2185129,2.66795829 24.5799462,2.30652504 25.0257967,2.30652504 L209.7304,2.30652504 Z" opacity=".814"/>
      <g opacity=".8" transform="translate(.673 1.25)">
        <g fill-rule="nonzero">
          <use fill="#5598F2" xlink:href="#2020-r"/>
          <use fill="url(#2020-s)" xlink:href="#2020-r"/>
        </g>
        <polyline stroke="#FFF" stroke-linecap="round" stroke-linejoin="round" stroke-width="1.009" points="4.036 4.036 4.036 10.427 7.4 7.568 10.764 10.427 10.764 4.036"/>
      </g>
    </g>
    <g transform="translate(63.43 145.311)">
      <path fill="#ECEDEF" d="M77.1716827,13.262519 C77.6175332,13.262519 77.9789664,13.6239522 77.9789664,14.0698027 L77.9789664,16.491654 C77.9789664,16.9375045 77.6175332,17.2989378 77.1716827,17.2989378 L25.0257967,17.2989378 C24.5799462,17.2989378 24.2185129,16.9375045 24.2185129,16.491654 L24.2185129,14.0698027 C24.2185129,13.6239522 24.5799462,13.262519 25.0257967,13.262519 L77.1716827,13.262519 Z M209.7304,4.03641882 C210.17625,4.03641882 210.537683,4.39785207 210.537683,4.84370258 L210.537683,7.26555387 C210.537683,7.71140438 210.17625,8.07283763 209.7304,8.07283763 L25.0257967,8.07283763 C24.5799462,8.07283763 24.2185129,7.71140438 24.2185129,7.26555387 L24.2185129,4.84370258 C24.2185129,4.39785207 24.5799462,4.03641882 25.0257967,4.03641882 L209.7304,4.03641882 Z" opacity=".814"/>
      <g opacity=".8" transform="translate(.673 2.98)">
        <use fill="#F88460" xlink:href="#2020-t"/>
        <use fill="url(#2020-u)" xlink:href="#2020-t"/>
        <path stroke="#FFF" stroke-linecap="round" stroke-linejoin="round" stroke-width="1.009" d="M4.06570746,4.04136397 L9.75467918,4.03754718 C10.6829112,4.03692442 11.4358968,4.78890033 11.4365196,5.71713238 C11.4365199,5.71750825 11.43652,5.71788412 11.43652,5.71825999 C11.43652,6.64711522 10.683534,7.40010116 9.75467881,7.40010116 L4.03641882,7.40010116 L4.03641882,7.40010116 L4.03641882,11.1001517"/>
      </g>
    </g>
    <g transform="translate(63.43 177.026)">
      <path fill="#ECEDEF" d="M77.1716827,11.5326252 C77.6175332,11.5326252 77.9789664,11.8940584 77.9789664,12.339909 L77.9789664,14.7617602 C77.9789664,15.2076108 77.6175332,15.569044 77.1716827,15.569044 L25.0257967,15.569044 C24.5799462,15.569044 24.2185129,15.2076108 24.2185129,14.7617602 L24.2185129,12.339909 C24.2185129,11.8940584 24.5799462,11.5326252 25.0257967,11.5326252 L77.1716827,11.5326252 Z M209.7304,2.30652504 C210.17625,2.30652504 210.537683,2.66795829 210.537683,3.1138088 L210.537683,5.53566009 C210.537683,5.9815106 210.17625,6.34294385 209.7304,6.34294385 L25.0257967,6.34294385 C24.5799462,6.34294385 24.2185129,5.9815106 24.2185129,5.53566009 L24.2185129,3.1138088 C24.2185129,2.66795829 24.5799462,2.30652504 25.0257967,2.30652504 L209.7304,2.30652504 Z" opacity=".814"/>
      <g opacity=".8" transform="translate(.673 1.25)">
        <use fill="#55D1A5" xlink:href="#2020-v"/>
        <use fill="url(#2020-w)" xlink:href="#2020-v"/>
        <path stroke="#FFF" stroke-linecap="round" stroke-width="1.009" d="M10.7810655,4.03641882 L5.38189176,4.03641882 C4.45303652,4.03641882 3.70005058,4.78940476 3.70005058,5.71825999 C3.70005058,6.64711522 4.45303652,7.40010116 5.38189176,7.40010116 L9.41831057,7.40010116 C10.3471658,7.40010116 11.1001517,8.15308711 11.1001517,9.08194234 C11.1001517,10.0107976 10.3471658,10.7637835 9.41831057,10.7637835 L4.03890901,10.7637835 L4.03890901,10.7637835"/>
      </g>
    </g>
    <g transform="translate(62.853 68.62)">
      <use fill="#000" filter="url(#2020-x)" xlink:href="#2020-y"/>
      <rect width="102.423" height="29.423" x=".436" y=".669" fill="#FFF" stroke="#F0F0F0" stroke-linejoin="square" stroke-width=".577"/>
      <use fill="#000" filter="url(#2020-z)" xlink:href="#2020-A"/>
      <rect width="102.423" height="29.423" x="108.436" y=".669" fill="#FFF" stroke="#F0F0F0" stroke-linejoin="square" stroke-width=".577"/>
      <g opacity=".8" transform="translate(6.981 8.265)">
        <g fill-rule="nonzero">
          <use fill="#5598F2" xlink:href="#2020-B"/>
          <use fill="url(#2020-s)" xlink:href="#2020-B"/>
        </g>
        <polyline stroke="#FFF" stroke-linecap="round" stroke-linejoin="round" stroke-width=".865" points="3.46 3.46 3.46 8.938 6.343 6.487 9.226 8.938 9.226 3.46"/>
      </g>
      <path fill="#ECEDEF" d="M47.3155269,16.7223065 C47.7446445,16.7223065 48.0925131,17.195612 48.0925131,17.7794638 L48.0925131,19.8937783 C48.0925131,20.4776301 47.7446445,20.9509356 47.3155269,20.9509356 L26.7253929,20.9509356 C26.2962752,20.9509356 25.9484067,20.4776301 25.9484067,19.8937783 L25.9484067,17.7794638 C25.9484067,17.195612 26.2962752,16.7223065 26.7253929,16.7223065 L47.3155269,16.7223065 Z M88.6399527,8.64946889 C89.0690703,8.64946889 89.4169389,9.12277432 89.4169389,9.70662615 L89.4169389,11.8209407 C89.4169389,12.4047925 89.0690703,12.8780979 88.6399527,12.8780979 L26.7253929,12.8780979 C26.2962752,12.8780979 25.9484067,12.4047925 25.9484067,11.8209407 L25.9484067,9.70662615 C25.9484067,9.12277432 26.2962752,8.64946889 26.7253929,8.64946889 L88.6399527,8.64946889 Z"/>
    </g>
    <g transform="translate(171.26 68.62)">
      <path d="M0.774992413,0 L101.865372,0 C102.293388,7.90462986e-15 102.640364,0.346975922 102.640364,0.774992413 L102.640364,29.7864643 C102.640364,30.2144808 102.293388,30.5614568 101.865372,30.5614568 L0.774992413,30.5614568 C0.346975922,30.5614568 -1.05780612e-15,30.2144808 0,29.7864643 L0,0.774992413 C-5.24169025e-17,0.346975922 0.346975922,6.33736866e-16 0.774992413,0 Z"/>
      <g opacity=".8" transform="translate(8.134 8.265)">
        <g fill-rule="nonzero">
          <use fill="#5598F2" xlink:href="#2020-C"/>
          <use fill="url(#2020-s)" xlink:href="#2020-C"/>
        </g>
        <polyline stroke="#FFF" stroke-linecap="round" stroke-linejoin="round" stroke-width=".865" points="3.46 3.46 3.46 8.938 6.343 6.487 9.226 8.938 9.226 3.46"/>
      </g>
      <path fill="#ECEDEF" d="M47.8921581,16.7223065 C48.3212757,16.7223065 48.6691443,17.195612 48.6691443,17.7794638 L48.6691443,19.8937783 C48.6691443,20.4776301 48.3212757,20.9509356 47.8921581,20.9509356 L27.3020241,20.9509356 C26.8729065,20.9509356 26.5250379,20.4776301 26.5250379,19.8937783 L26.5250379,17.7794638 C26.5250379,17.195612 26.8729065,16.7223065 27.3020241,16.7223065 L47.8921581,16.7223065 Z M89.2165839,8.64946889 C89.6457016,8.64946889 89.9935701,9.12277432 89.9935701,9.70662615 L89.9935701,11.8209407 C89.9935701,12.4047925 89.6457016,12.8780979 89.2165839,12.8780979 L27.3020241,12.8780979 C26.8729065,12.8780979 26.5250379,12.4047925 26.5250379,11.8209407 L26.5250379,9.70662615 C26.5250379,9.12277432 26.8729065,8.64946889 27.3020241,8.64946889 L89.2165839,8.64946889 Z"/>
    </g>
    <g transform="translate(5.19 29.985)">
      <g fill-rule="nonzero" transform="translate(4.678 115.01)">
        <use fill="#000" filter="url(#2020-D)" xlink:href="#2020-E"/>
        <use fill="#A5AFC1" xlink:href="#2020-E"/>
        <use fill="#000" filter="url(#2020-F)" xlink:href="#2020-G"/>
        <use fill="#FFF" xlink:href="#2020-G"/>
      </g>
      <g transform="translate(0 76.692)">
        <rect width="37.135" height="33.099" fill="#FFF" fill-opacity=".1" rx="1.162"/>
        <g fill-rule="nonzero" transform="translate(13.174 9.121)">
          <use fill="#000" filter="url(#2020-H)" xlink:href="#2020-I"/>
          <use fill="#417FF9" xlink:href="#2020-I"/>
          <use fill="#000" filter="url(#2020-J)" xlink:href="#2020-K"/>
          <use fill="#FFF" xlink:href="#2020-K"/>
        </g>
      </g>
      <g fill-rule="nonzero" transform="translate(4.678 38.663)">
        <use fill="#000" filter="url(#2020-L)" xlink:href="#2020-M"/>
        <use fill="#A5AFC1" xlink:href="#2020-M"/>
        <use fill="#000" filter="url(#2020-N)" xlink:href="#2020-O"/>
        <use fill="#FFF" xlink:href="#2020-O"/>
      </g>
      <g transform="translate(11.597 7.064)">
        <mask id="2020-R" fill="#fff">
          <use xlink:href="#2020-P"/>
        </mask>
        <g fill-rule="nonzero">
          <use fill="#000" filter="url(#2020-Q)" xlink:href="#2020-P"/>
          <use fill="#A5AFC1" xlink:href="#2020-P"/>
        </g>
        <g fill-rule="nonzero" mask="url(#2020-R)">
          <use fill="#000" filter="url(#2020-S)" xlink:href="#2020-T"/>
          <use fill="#FFF" xlink:href="#2020-T"/>
        </g>
      </g>
    </g>
    <polygon fill="#ECEDEF" points="49.59 34.021 50.167 34.021 50.167 220.273 49.59 220.273" opacity=".566"/>
    <g fill-rule="nonzero">
      <use fill="#000" filter="url(#2020-U)" xlink:href="#2020-V"/>
      <use fill="#E3E4E7" xlink:href="#2020-V"/>
    </g>
    <g transform="translate(352.322 34.021)">
      <mask id="2020-Y" fill="#fff">
        <use xlink:href="#2020-W"/>
      </mask>
      <g fill-rule="nonzero">
        <use fill="#000" filter="url(#2020-X)" xlink:href="#2020-W"/>
        <use fill="#ECEDEF" xlink:href="#2020-W"/>
      </g>
      <path fill="#949DAD" d="M6.91957511,8.07283763 C10.1042216,8.07283763 12.6858877,10.6545037 12.6858877,13.8391502 C12.6858877,17.0237967 10.1042216,19.6054628 6.91957511,19.6054628 C3.73492861,19.6054628 1.15326252,17.0237967 1.15326252,13.8391502 C1.15326252,10.6545037 3.73492861,8.07283763 6.91957511,8.07283763 Z M6.91957511,2.30652504 C8.19343372,2.30652504 9.22610015,3.33919147 9.22610015,4.61305008 C9.22610015,5.88690868 8.19343372,6.91957511 6.91957511,6.91957511 C5.64571651,6.91957511 4.61305008,5.88690868 4.61305008,4.61305008 C4.61305008,3.33919147 5.64571651,2.30652504 6.91957511,2.30652504 Z" mask="url(#2020-Y)" opacity=".394"/>
    </g>
    <g transform="translate(4.036 4.036)">
      <path fill="#FFF" d="M1.15326252,0 L29.4081942,0 C30.0451235,2.14582543e-15 30.5614568,0.516333217 30.5614568,1.15326252 L30.5614568,17.2989378 L30.5614568,17.2989378 L0,17.2989378 L0,1.15326252 C-3.00045948e-16,0.516333217 0.516333217,3.3904662e-16 1.15326252,0 Z"/>
      <g fill-rule="nonzero" transform="translate(8.65 2.307)">
        <rect width="12.686" height="12.686" x=".577"/>
        <path fill="#A5AFC1" stroke="#A5AFC1" stroke-width=".5" d="M4.20829079,3.45978756 C4.36289925,3.45978756 4.50610909,3.53473689 4.59455909,3.65780417 L4.63402003,3.72322343 L5.42955994,5.31906297 L4.89754552,6.38309181 L3.91342592,4.41122914 L1.25097524,4.41122914 L3.78577418,9.41739757 L6.62595018,3.72322343 C6.69494242,3.58486214 6.82592137,3.49014691 6.97552581,3.46590912 L7.05167941,3.45978756 L10.783627,3.45978756 C11.1146991,3.45978756 11.3370798,3.78578022 11.2349477,4.08652749 L11.2080166,4.15045892 L7.89496107,10.6916198 C7.73087218,11.0155901 7.28905177,11.0374106 7.08700461,10.7586697 L7.04487023,10.6890102 L5.83154401,8.25663885 L6.36355842,7.19261002 L7.47340316,9.41739757 L10.0082021,4.41122914 L7.34575141,4.41122914 L4.21509998,10.6890102 C4.05300317,11.0139819 3.61132505,11.0385145 3.40757039,10.7610193 L3.36500913,10.6916198 L0.0519536326,4.15045892 C-0.0976385902,3.85511017 0.0926978885,3.50942759 0.407141499,3.46464924 L0.47634322,3.45978756 L4.20829079,3.45978756 Z"/>
      </g>
      <g transform="translate(33.445)">
        <path fill="#FFF" d="M1.15326252,0 L49.0136571,0 C49.6505864,-1.17002015e-16 50.1669196,0.516333217 50.1669196,1.15326252 L50.1669196,17.2989378 L50.1669196,17.2989378 L0,17.2989378 L0,1.15326252 C1.44043262e-16,0.516333217 0.516333217,7.83135829e-16 1.15326252,0 Z" opacity=".325"/>
        <g transform="translate(6.343 5.19)">
          <g fill-rule="nonzero">
            <path fill="url(#2020-Z)" d="M0.739208176,1.40166506e-16 L6.18036694,-2.58929723e-16 C6.43740572,1.50445625e-16 6.5306142,0.0267630745 6.62458374,0.0770185337 C6.71855328,0.127273993 6.79230112,0.201021837 6.84255658,0.294991375 C6.89281204,0.388960914 6.91957511,0.482169389 6.91957511,0.739208176 L6.91957511,6.18036694 C6.91957511,6.43740572 6.89281204,6.5306142 6.84255658,6.62458374 C6.79230112,6.71855328 6.71855328,6.79230112 6.62458374,6.84255658 C6.5306142,6.89281204 6.43740572,6.91957511 6.18036694,6.91957511 L0.739208176,6.91957511 C0.482169389,6.91957511 0.388960914,6.89281204 0.294991375,6.84255658 C0.201021837,6.79230112 0.127273993,6.71855328 0.0770185337,6.62458374 C0.0267630745,6.5306142 3.86235942e-17,6.43740572 -6.64744921e-17,6.18036694 L1.990993e-17,0.739208176 C-1.15682427e-17,0.482169389 0.0267630745,0.388960914 0.0770185337,0.294991375 C0.127273993,0.201021837 0.201021837,0.127273993 0.294991375,0.0770185337 C0.388960914,0.0267630745 0.482169389,-8.14407765e-17 0.739208176,1.40166506e-16 Z"/>
            <path fill="#FFF" d="M4.75720789,4.40485542 L4.75720789,4.96664144 L5.13099922,4.81418448 L4.75720789,4.40485542 Z M1.7885759,4.81418448 L2.16236722,4.96664144 L2.16236722,4.40485542 L1.7885759,4.81418448 Z M3.45978756,3.63406625 L2.1036851,5.1190984 C1.96951969,5.26601941 1.72989378,5.16828403 1.72989378,4.96664144 L1.72989378,1.9524856 C1.72989378,1.6556965 2.16236722,1.6556965 2.16236722,1.9524856 L2.16236722,4.40485542 L3.30223295,3.15661842 C3.38762734,3.06310527 3.53194777,3.06310527 3.61734216,3.15661842 L4.75720789,4.40485542 L4.75720789,1.9524856 C4.75720789,1.6556965 5.18968134,1.6556965 5.18968134,1.9524856 L5.18968134,4.96664144 C5.18968134,5.16828403 4.95005542,5.26601941 4.81589001,5.1190984 L3.45978756,3.63406625 Z M4.75720789,4.40485542 L4.75720789,4.96664144 L5.13099922,4.81418448 L4.75720789,4.40485542 Z M1.7885759,4.81418448 L2.16236722,4.96664144 L2.16236722,4.40485542 L1.7885759,4.81418448 Z"/>
          </g>
          <path d="M0.739208176,1.40166506e-16 L6.18036694,-2.58929723e-16 C6.43740572,1.50445625e-16 6.5306142,0.0267630745 6.62458374,0.0770185337 C6.71855328,0.127273993 6.79230112,0.201021837 6.84255658,0.294991375 C6.89281204,0.388960914 6.91957511,0.482169389 6.91957511,0.739208176 L6.91957511,6.18036694 C6.91957511,6.43740572 6.89281204,6.5306142 6.84255658,6.62458374 C6.79230112,6.71855328 6.71855328,6.79230112 6.62458374,6.84255658 C6.5306142,6.89281204 6.43740572,6.91957511 6.18036694,6.91957511 L0.739208176,6.91957511 C0.482169389,6.91957511 0.388960914,6.89281204 0.294991375,6.84255658 C0.201021837,6.79230112 0.127273993,6.71855328 0.0770185337,6.62458374 C0.0267630745,6.5306142 3.86235942e-17,6.43740572 -6.64744921e-17,6.18036694 L1.990993e-17,0.739208176 C-1.15682427e-17,0.482169389 0.0267630745,0.388960914 0.0770185337,0.294991375 C0.127273993,0.201021837 0.201021837,0.127273993 0.294991375,0.0770185337 C0.388960914,0.0267630745 0.482169389,-8.14407765e-17 0.739208176,1.40166506e-16 Z"/>
          <path fill="#E3E4E7" d="M10.9559939,2.30652504 L32.8679818,2.30652504 C33.1864464,2.30652504 33.4446131,2.56469165 33.4446131,2.8831563 L33.4446131,4.61305008 C33.4446131,4.93151473 33.1864464,5.18968134 32.8679818,5.18968134 L10.9559939,5.18968134 C10.6375293,5.18968134 10.3793627,4.93151473 10.3793627,4.61305008 L10.3793627,2.8831563 C10.3793627,2.56469165 10.6375293,2.30652504 10.9559939,2.30652504 Z"/>
        </g>
      </g>
      <g transform="translate(85.918)">
        <path fill="#FFF" d="M1.15326252,0 L49.0136571,0 C49.6505864,-1.17002015e-16 50.1669196,0.516333217 50.1669196,1.15326252 L50.1669196,17.2989378 L50.1669196,17.2989378 L0,17.2989378 L0,1.15326252 C1.44043262e-16,0.516333217 0.516333217,7.83135829e-16 1.15326252,0 Z" opacity=".325"/>
        <g transform="translate(6.343 5.19)">
          <path d="M0.739208176,1.40166506e-16 L6.18036694,-2.58929723e-16 C6.43740572,1.50445625e-16 6.5306142,0.0267630745 6.62458374,0.0770185337 C6.71855328,0.127273993 6.79230112,0.201021837 6.84255658,0.294991375 C6.89281204,0.388960914 6.91957511,0.482169389 6.91957511,0.739208176 L6.91957511,6.18036694 C6.91957511,6.43740572 6.89281204,6.5306142 6.84255658,6.62458374 C6.79230112,6.71855328 6.71855328,6.79230112 6.62458374,6.84255658 C6.5306142,6.89281204 6.43740572,6.91957511 6.18036694,6.91957511 L0.739208176,6.91957511 C0.482169389,6.91957511 0.388960914,6.89281204 0.294991375,6.84255658 C0.201021837,6.79230112 0.127273993,6.71855328 0.0770185337,6.62458374 C0.0267630745,6.5306142 3.86235942e-17,6.43740572 -6.64744921e-17,6.18036694 L1.990993e-17,0.739208176 C-1.15682427e-17,0.482169389 0.0267630745,0.388960914 0.0770185337,0.294991375 C0.127273993,0.201021837 0.201021837,0.127273993 0.294991375,0.0770185337 C0.388960914,0.0267630745 0.482169389,-8.14407765e-17 0.739208176,1.40166506e-16 Z"/>
          <path d="M0.739208176,1.40166506e-16 L6.18036694,-2.58929723e-16 C6.43740572,1.50445625e-16 6.5306142,0.0267630745 6.62458374,0.0770185337 C6.71855328,0.127273993 6.79230112,0.201021837 6.84255658,0.294991375 C6.89281204,0.388960914 6.91957511,0.482169389 6.91957511,0.739208176 L6.91957511,6.18036694 C6.91957511,6.43740572 6.89281204,6.5306142 6.84255658,6.62458374 C6.79230112,6.71855328 6.71855328,6.79230112 6.62458374,6.84255658 C6.5306142,6.89281204 6.43740572,6.91957511 6.18036694,6.91957511 L0.739208176,6.91957511 C0.482169389,6.91957511 0.388960914,6.89281204 0.294991375,6.84255658 C0.201021837,6.79230112 0.127273993,6.71855328 0.0770185337,6.62458374 C0.0267630745,6.5306142 3.86235942e-17,6.43740572 -6.64744921e-17,6.18036694 L1.990993e-17,0.739208176 C-1.15682427e-17,0.482169389 0.0267630745,0.388960914 0.0770185337,0.294991375 C0.127273993,0.201021837 0.201021837,0.127273993 0.294991375,0.0770185337 C0.388960914,0.0267630745 0.482169389,-8.14407765e-17 0.739208176,1.40166506e-16 Z"/>
          <path fill="url(#2020-aa)" d="M0.739208176,1.40166506e-16 L6.18036694,-2.58929723e-16 C6.43740572,1.50445625e-16 6.5306142,0.0267630745 6.62458374,0.0770185337 C6.71855328,0.127273993 6.79230112,0.201021837 6.84255658,0.294991375 C6.89281204,0.388960914 6.91957511,0.482169389 6.91957511,0.739208176 L6.91957511,6.18036694 C6.91957511,6.43740572 6.89281204,6.5306142 6.84255658,6.62458374 C6.79230112,6.71855328 6.71855328,6.79230112 6.62458374,6.84255658 C6.5306142,6.89281204 6.43740572,6.91957511 6.18036694,6.91957511 L0.739208176,6.91957511 C0.482169389,6.91957511 0.388960914,6.89281204 0.294991375,6.84255658 C0.201021837,6.79230112 0.127273993,6.71855328 0.0770185337,6.62458374 C0.0267630745,6.5306142 3.86235942e-17,6.43740572 -6.64744921e-17,6.18036694 L1.990993e-17,0.739208176 C-1.15682427e-17,0.482169389 0.0267630745,0.388960914 0.0770185337,0.294991375 C0.127273993,0.201021837 0.201021837,0.127273993 0.294991375,0.0770185337 C0.388960914,0.0267630745 0.482169389,-8.14407765e-17 0.739208176,1.40166506e-16 Z"/>
          <path fill="#FFF" fill-rule="nonzero" d="M2.17702807,3.76506293 L2.17702807,4.98616442 C2.17702807,5.09856371 2.07693365,5.18968134 1.95346092,5.18968134 C1.8299882,5.18968134 1.72989378,5.09856371 1.72989378,4.98616442 L1.72989378,3.56154601 C1.72989378,3.44914673 1.8299882,3.3580291 1.95346092,3.3580291 L4.50431906,3.3580291 C4.87473723,3.3580291 5.17502049,3.08467622 5.17502049,2.74747835 C5.17502049,2.41028049 4.87473723,2.13692761 4.50431906,2.13692761 L1.95346092,2.13692761 C1.8299882,2.13692761 1.72989378,2.04580998 1.72989378,1.93341069 C1.72989378,1.82101141 1.8299882,1.72989378 1.95346092,1.72989378 L4.50431906,1.72989378 C5.12168268,1.72989378 5.62215478,2.18548191 5.62215478,2.74747835 C5.62215478,3.3094748 5.12168268,3.76506293 4.50431906,3.76506293 L2.17702807,3.76506293 Z"/>
          <rect width="23.065" height="2.883" x="10.379" y="2.307" fill="#E3E4E7" rx=".577"/>
        </g>
      </g>
      <g transform="translate(138.392)">
        <path fill="#FFF" d="M1.15326252,0 L49.0136571,0 C49.6505864,-1.17002015e-16 50.1669196,0.516333217 50.1669196,1.15326252 L50.1669196,17.2989378 L50.1669196,17.2989378 L0,17.2989378 L0,1.15326252 C1.44043262e-16,0.516333217 0.516333217,7.83135829e-16 1.15326252,0 Z" opacity=".325"/>
        <g transform="translate(6.343 5.19)">
          <path d="M0.739208176,1.40166506e-16 L6.18036694,-2.58929723e-16 C6.43740572,1.50445625e-16 6.5306142,0.0267630745 6.62458374,0.0770185337 C6.71855328,0.127273993 6.79230112,0.201021837 6.84255658,0.294991375 C6.89281204,0.388960914 6.91957511,0.482169389 6.91957511,0.739208176 L6.91957511,6.18036694 C6.91957511,6.43740572 6.89281204,6.5306142 6.84255658,6.62458374 C6.79230112,6.71855328 6.71855328,6.79230112 6.62458374,6.84255658 C6.5306142,6.89281204 6.43740572,6.91957511 6.18036694,6.91957511 L0.739208176,6.91957511 C0.482169389,6.91957511 0.388960914,6.89281204 0.294991375,6.84255658 C0.201021837,6.79230112 0.127273993,6.71855328 0.0770185337,6.62458374 C0.0267630745,6.5306142 3.86235942e-17,6.43740572 -6.64744921e-17,6.18036694 L1.990993e-17,0.739208176 C-1.15682427e-17,0.482169389 0.0267630745,0.388960914 0.0770185337,0.294991375 C0.127273993,0.201021837 0.201021837,0.127273993 0.294991375,0.0770185337 C0.388960914,0.0267630745 0.482169389,-8.14407765e-17 0.739208176,1.40166506e-16 Z"/>
          <path d="M0.739208176,1.40166506e-16 L6.18036694,-2.58929723e-16 C6.43740572,1.50445625e-16 6.5306142,0.0267630745 6.62458374,0.0770185337 C6.71855328,0.127273993 6.79230112,0.201021837 6.84255658,0.294991375 C6.89281204,0.388960914 6.91957511,0.482169389 6.91957511,0.739208176 L6.91957511,6.18036694 C6.91957511,6.43740572 6.89281204,6.5306142 6.84255658,6.62458374 C6.79230112,6.71855328 6.71855328,6.79230112 6.62458374,6.84255658 C6.5306142,6.89281204 6.43740572,6.91957511 6.18036694,6.91957511 L0.739208176,6.91957511 C0.482169389,6.91957511 0.388960914,6.89281204 0.294991375,6.84255658 C0.201021837,6.79230112 0.127273993,6.71855328 0.0770185337,6.62458374 C0.0267630745,6.5306142 3.86235942e-17,6.43740572 -6.64744921e-17,6.18036694 L1.990993e-17,0.739208176 C-1.15682427e-17,0.482169389 0.0267630745,0.388960914 0.0770185337,0.294991375 C0.127273993,0.201021837 0.201021837,0.127273993 0.294991375,0.0770185337 C0.388960914,0.0267630745 0.482169389,-8.14407765e-17 0.739208176,1.40166506e-16 Z"/>
          <path fill="url(#2020-ab)" d="M0.739208176,1.40166506e-16 L6.18036694,-2.58929723e-16 C6.43740572,1.50445625e-16 6.5306142,0.0267630745 6.62458374,0.0770185337 C6.71855328,0.127273993 6.79230112,0.201021837 6.84255658,0.294991375 C6.89281204,0.388960914 6.91957511,0.482169389 6.91957511,0.739208176 L6.91957511,6.18036694 C6.91957511,6.43740572 6.89281204,6.5306142 6.84255658,6.62458374 C6.79230112,6.71855328 6.71855328,6.79230112 6.62458374,6.84255658 C6.5306142,6.89281204 6.43740572,6.91957511 6.18036694,6.91957511 L0.739208176,6.91957511 C0.482169389,6.91957511 0.388960914,6.89281204 0.294991375,6.84255658 C0.201021837,6.79230112 0.127273993,6.71855328 0.0770185337,6.62458374 C0.0267630745,6.5306142 3.86235942e-17,6.43740572 -6.64744921e-17,6.18036694 L1.990993e-17,0.739208176 C-1.15682427e-17,0.482169389 0.0267630745,0.388960914 0.0770185337,0.294991375 C0.127273993,0.201021837 0.201021837,0.127273993 0.294991375,0.0770185337 C0.388960914,0.0267630745 0.482169389,-8.14407765e-17 0.739208176,1.40166506e-16 Z"/>
          <path fill="#FFF" fill-rule="nonzero" d="M4.86532625,1.72989378 C4.9847505,1.72989378 5.08156297,1.82670626 5.08156297,1.9461305 C5.08156297,2.06555474 4.9847505,2.16236722 4.86532625,2.16236722 L2.70295903,2.16236722 C2.40439842,2.16236722 2.16236722,2.40439842 2.16236722,2.70295903 C2.16236722,3.00151964 2.40439842,3.24355083 2.70295903,3.24355083 L4.21661608,3.24355083 C4.75402518,3.24355083 5.18968134,3.67920699 5.18968134,4.21661608 C5.18968134,4.75402518 4.75402518,5.18968134 4.21661608,5.18968134 L2.05424886,5.18968134 C1.93482462,5.18968134 1.83801214,5.09286886 1.83801214,4.97344461 C1.83801214,4.85402037 1.93482462,4.75720789 2.05424886,4.75720789 L4.21661608,4.75720789 C4.5151767,4.75720789 4.75720789,4.5151767 4.75720789,4.21661608 C4.75720789,3.91805547 4.5151767,3.67602428 4.21661608,3.67602428 L2.70295903,3.67602428 C2.16554993,3.67602428 1.72989378,3.24036813 1.72989378,2.70295903 C1.72989378,2.16554993 2.16554993,1.72989378 2.70295903,1.72989378 L4.86532625,1.72989378 Z"/>
          <rect width="23.065" height="2.883" x="10.379" y="2.307" fill="#E3E4E7" rx=".577"/>
        </g>
      </g>
    </g>
  </g>
</svg>
